# xmcd CD database file
#
# Track frame offsets:
#	150
#	15913
#	33770
#	52875
#	64696
#	77821
#	97323
#	109277
#	123820
#	138718
#	156717
#	170576
#
# Disc length: 2545 seconds
#
# Revision: 0
# Processed by: cddbd v1.5.2PL0 Copyright (c) Steve Scherf et al.
# Submitted via: CDex 1.51
#
DISCID=9f09ef0c
DTITLE=Kennedy, Milteau and Segal - CrossBorder Blues
DYEAR=2018
DGENRE=Blues
TTITLE0=Here Comes Sunday Morning
TTITLE1=That's Just Stupid
TTITLE2=What's Going On
TTITLE3=Blues Solution
TTITLE4=No Monopoly On Hurt
TTITLE5=Georgia On My Mind
TTITLE6=Judgment Day
TTITLE7=Back Alley Moan
TTITLE8=T-Bone Suffle
TTITLE9=Imagine
TTITLE10=Prisoners In The Open Air
TTITLE11=The Thrill Is Gone
EXTD=YEAR: 2018
EXTT0=
EXTT1=
EXTT2=
EXTT3=
EXTT4=
EXTT5=
EXTT6=
EXTT7=
EXTT8=
EXTT9=
EXTT10=
EXTT11=
PLAYORDER=
